<svg width="75" height="25" viewBox="0 0 75 25" fill="none" xmlns="http://www.w3.org/2000/svg">
<rect width="75" height="25" fill="#1E1E1E"/>
<rect width="75" height="25" fill="white"/>
<path d="M11.4492 17.5391V20H4.27148V17.5391H11.4492ZM5.35547 5.78125V20H2.17188V5.78125H5.35547ZM16.0684 9.43359V20H13.0117V9.43359H16.0684ZM12.8262 6.69922C12.8262 6.25651 12.9824 5.89518 13.2949 5.61523C13.6074 5.32878 14.0176 5.18555 14.5254 5.18555C15.0332 5.18555 15.4434 5.32878 15.7559 5.61523C16.0749 5.89518 16.2344 6.25651 16.2344 6.69922C16.2344 7.13542 16.0749 7.49674 15.7559 7.7832C15.4434 8.06315 15.0332 8.20312 14.5254 8.20312C14.0176 8.20312 13.6074 8.06315 13.2949 7.7832C12.9824 7.49674 12.8262 7.13542 12.8262 6.69922ZM21.2539 11.6895V20H18.1973V9.43359H21.0684L21.2539 11.6895ZM20.8535 14.3457L20.0918 14.3652C20.0918 13.571 20.1895 12.8581 20.3848 12.2266C20.5801 11.5951 20.8568 11.0579 21.2148 10.6152C21.5794 10.166 22.0124 9.82422 22.5137 9.58984C23.0215 9.35547 23.5814 9.23828 24.1934 9.23828C24.6882 9.23828 25.1406 9.3099 25.5508 9.45312C25.9609 9.59635 26.3125 9.82747 26.6055 10.1465C26.9049 10.459 27.1328 10.8757 27.2891 11.3965C27.4453 11.9108 27.5234 12.5456 27.5234 13.3008V20H24.457V13.291C24.457 12.8483 24.3952 12.5065 24.2715 12.2656C24.1478 12.0247 23.9655 11.8555 23.7246 11.7578C23.4902 11.6602 23.2038 11.6113 22.8652 11.6113C22.5072 11.6113 22.2012 11.6829 21.9473 11.8262C21.6934 11.9629 21.485 12.1549 21.3223 12.4023C21.1595 12.6497 21.0391 12.9395 20.9609 13.2715C20.8893 13.6035 20.8535 13.9616 20.8535 14.3457ZM32.582 4.99023V20H29.5254V4.99023H32.582ZM39.291 9.43359L34.6914 14.7461L32.2598 17.1875L31.0391 15.127L33.0117 12.5781L35.6191 9.43359H39.291ZM36.0684 20L33.0898 15.1465L35.2773 13.4375L39.5645 20H36.0684ZM46.293 17.6367V5H49.3594V20H46.6055L46.293 17.6367ZM39.7109 14.8438V14.6387C39.7109 13.8379 39.7988 13.1087 39.9746 12.4512C40.1569 11.7871 40.4206 11.2174 40.7656 10.7422C41.1172 10.2604 41.5501 9.88932 42.0645 9.62891C42.5788 9.36849 43.168 9.23828 43.832 9.23828C44.444 9.23828 44.9779 9.375 45.4336 9.64844C45.8893 9.91536 46.2767 10.293 46.5957 10.7812C46.9212 11.263 47.1849 11.8327 47.3867 12.4902C47.5885 13.1413 47.7415 13.8477 47.8457 14.6094V14.9609C47.748 15.6901 47.5951 16.3704 47.3867 17.002C47.1849 17.6335 46.9212 18.1901 46.5957 18.6719C46.2767 19.1471 45.8861 19.5215 45.4238 19.7949C44.9681 20.0618 44.431 20.1953 43.8125 20.1953C43.1484 20.1953 42.5592 20.0618 42.0449 19.7949C41.5371 19.528 41.1107 19.1536 40.7656 18.6719C40.4206 18.1901 40.1569 17.6237 39.9746 16.9727C39.7988 16.3216 39.7109 15.612 39.7109 14.8438ZM42.7578 14.6387V14.8438C42.7578 15.2604 42.7871 15.6478 42.8457 16.0059C42.9108 16.3639 43.015 16.6797 43.1582 16.9531C43.3014 17.2266 43.4902 17.4414 43.7246 17.5977C43.959 17.7474 44.2454 17.8223 44.584 17.8223C45.0397 17.8223 45.4141 17.7181 45.707 17.5098C46 17.2949 46.2214 16.9987 46.3711 16.6211C46.5208 16.2435 46.599 15.804 46.6055 15.3027V14.2773C46.6055 13.8607 46.5632 13.4863 46.4785 13.1543C46.3939 12.8223 46.2669 12.5423 46.0977 12.3145C45.9349 12.0866 45.7298 11.9141 45.4824 11.7969C45.235 11.6732 44.9421 11.6113 44.6035 11.6113C44.2715 11.6113 43.9883 11.6895 43.7539 11.8457C43.5195 11.9954 43.3275 12.207 43.1777 12.4805C43.0345 12.7539 42.9271 13.0762 42.8555 13.4473C42.7904 13.8118 42.7578 14.209 42.7578 14.6387Z" fill="#0077B5"/>
<circle cx="62.5" cy="12.5" r="11.5" fill="#0077B5"/>
<path d="M58.2285 9.43359V20H55.1719V9.43359H58.2285ZM54.9863 6.69922C54.9863 6.25651 55.1426 5.89518 55.4551 5.61523C55.7676 5.32878 56.1777 5.18555 56.6855 5.18555C57.1934 5.18555 57.6035 5.32878 57.916 5.61523C58.235 5.89518 58.3945 6.25651 58.3945 6.69922C58.3945 7.13542 58.235 7.49674 57.916 7.7832C57.6035 8.06315 57.1934 8.20312 56.6855 8.20312C56.1777 8.20312 55.7676 8.06315 55.4551 7.7832C55.1426 7.49674 54.9863 7.13542 54.9863 6.69922ZM63.4141 11.6895V20H60.3574V9.43359H63.2285L63.4141 11.6895ZM63.0137 14.3457L62.252 14.3652C62.252 13.571 62.3496 12.8581 62.5449 12.2266C62.7402 11.5951 63.0169 11.0579 63.375 10.6152C63.7396 10.166 64.1725 9.82422 64.6738 9.58984C65.1816 9.35547 65.7415 9.23828 66.3535 9.23828C66.8483 9.23828 67.3008 9.3099 67.7109 9.45312C68.1211 9.59635 68.4727 9.82747 68.7656 10.1465C69.0651 10.459 69.293 10.8757 69.4492 11.3965C69.6055 11.9108 69.6836 12.5456 69.6836 13.3008V20H66.6172V13.291C66.6172 12.8483 66.5553 12.5065 66.4316 12.2656C66.3079 12.0247 66.1257 11.8555 65.8848 11.7578C65.6504 11.6602 65.3639 11.6113 65.0254 11.6113C64.6673 11.6113 64.3613 11.6829 64.1074 11.8262C63.8535 11.9629 63.6452 12.1549 63.4824 12.4023C63.3197 12.6497 63.1992 12.9395 63.1211 13.2715C63.0495 13.6035 63.0137 13.9616 63.0137 14.3457Z" fill="white"/>
</svg>
